<svg width="23" height="20" viewBox="0 0 23 20" fill="none" xmlns="http://www.w3.org/2000/svg">
<path d="M19.2479 3C20.6652 4.97024 21.5 7.38764 21.5 10C21.5 12.6124 20.6652 15.0298 19.2479 17M15.2453 6C16.0362 7.13384 16.5 8.51275 16.5 10C16.5 11.4873 16.0362 12.8662 15.2453 14M9.13432 2.36569L5.96863 5.53137C5.79568 5.70433 5.7092 5.7908 5.60828 5.85264C5.51881 5.90747 5.42127 5.94788 5.31923 5.97237C5.20414 6 5.08185 6 4.83726 6H3.1C2.53995 6 2.25992 6 2.04601 6.109C1.85785 6.20487 1.70487 6.35785 1.60899 6.54601C1.5 6.75992 1.5 7.03995 1.5 7.6V12.4C1.5 12.9601 1.5 13.2401 1.60899 13.454C1.70487 13.6422 1.85785 13.7951 2.04601 13.891C2.25992 14 2.53995 14 3.1 14H4.83726C5.08185 14 5.20414 14 5.31923 14.0276C5.42127 14.0521 5.51881 14.0925 5.60828 14.1474C5.7092 14.2092 5.79568 14.2957 5.96863 14.4686L9.13431 17.6343C9.56269 18.0627 9.77688 18.2769 9.96077 18.2914C10.1203 18.3039 10.2763 18.2393 10.3802 18.1176C10.5 17.9774 10.5 17.6744 10.5 17.0686V2.93137C10.5 2.32556 10.5 2.02265 10.3802 1.88239C10.2763 1.76068 10.1203 1.69609 9.96077 1.70865C9.77688 1.72312 9.56269 1.93731 9.13432 2.36569Z" stroke="black" stroke-width="2" stroke-linecap="round" stroke-linejoin="round"/>
</svg>
