<svg width="24" height="26" viewBox="0 0 24 26" fill="none" xmlns="http://www.w3.org/2000/svg">
<path d="M22.5 10.6666H1.5M16.6667 1.33325V5.99992M7.33333 1.33325V5.99992M10.25 15.3333L12 14.1666V19.9999M10.5417 19.9999H13.4583M7.1 24.6666H16.9C18.8602 24.6666 19.8403 24.6666 20.589 24.2851C21.2475 23.9496 21.783 23.4141 22.1185 22.7556C22.5 22.0069 22.5 21.0268 22.5 19.0666V9.26659C22.5 7.3064 22.5 6.32631 22.1185 5.57762C21.783 4.91905 21.2475 4.38362 20.589 4.04806C19.8403 3.66659 18.8602 3.66659 16.9 3.66659H7.1C5.13982 3.66659 4.15972 3.66659 3.41103 4.04806C2.75247 4.38362 2.21703 4.91905 1.88148 5.57762C1.5 6.32631 1.5 7.3064 1.5 9.26658V19.0666C1.5 21.0268 1.5 22.0069 1.88148 22.7556C2.21703 23.4141 2.75247 23.9496 3.41103 24.2851C4.15972 24.6666 5.13982 24.6666 7.1 24.6666Z" stroke="black" stroke-width="2" stroke-linecap="round" stroke-linejoin="round"/>
</svg>
