<svg width="78" height="38" viewBox="0 0 234 116" fill="none" xmlns="http://www.w3.org/2000/svg">
<g clip-path="url(#clip0_275_1047)">
<path d="M28.2151 0V57.57C44.1118 57.57 57.0001 44.6817 57.0001 28.785C57.0001 12.8883 44.1118 0 28.2151 0Z" fill="#1762CE"/>
<path d="M28.2151 57.5698V115.14C44.1118 115.14 57.0001 102.251 57.0001 86.3548C57.0001 70.4582 44.1118 57.5698 28.2151 57.5698Z" fill="#1762CE"/>
<path d="M0 0V57.57C15.8967 57.57 28.785 44.6817 28.785 28.785C28.785 12.8883 15.8967 0 0 0Z" fill="#1762CE"/>
<path d="M0 57.5698V115.14C15.8967 115.14 28.785 102.251 28.785 86.3548C28.785 70.4582 15.8967 57.5698 0 57.5698Z" fill="#1762CE"/>
<path d="M85.2151 0V57.57C101.112 57.57 114 44.6817 114 28.785C114 12.8883 101.112 0 85.2151 0Z" fill="#1762CE"/>
<path d="M85.2151 57.5698V115.14C101.112 115.14 114 102.251 114 86.3548C114 70.4582 101.112 57.5698 85.2151 57.5698Z" fill="#1762CE"/>
<path d="M57 0V57.57C72.8967 57.57 85.785 44.6817 85.785 28.785C85.785 12.8883 72.8967 0 57 0Z" fill="#1762CE"/>
<path d="M57 57.5698V115.14C72.8967 115.14 85.785 102.251 85.785 86.3548C85.785 70.4582 72.8967 57.5698 57 57.5698Z" fill="#1762CE"/>
</g>
<g clip-path="url(#clip1_275_1047)">
<path d="M199.994 60.1729C188.149 58.1191 173.487 45.94 169.594 34.549C165.678 45.94 151.015 58.1191 139.194 60.1729V56.9251C149.391 55.1818 167.755 41.4027 167.755 26.1908V15.3251H171.457V26.1908C171.457 41.4027 190.036 55.1818 200.018 56.9251V60.1729H199.994ZM159.397 100.245C152.997 100.245 149.94 98.2863 149.94 91.4565V68.4356H232.782V100.245H159.397ZM229.104 71.5878H153.642V91.4565C153.642 95.6833 155.385 96.9968 159.397 96.9968H229.104V71.5878ZM229.104 62.5609V36.8177H211.839V62.5609H208.257V14.8953H211.839V33.5699H229.104V14.8953H232.806V62.5609H229.104Z" fill="black"/>
<path d="M234 101.439H159.397C151.827 101.439 148.746 98.5492 148.746 91.4566V67.2417H233.976V101.439H234ZM151.134 69.6298V91.4566C151.134 97.2119 153.14 99.0507 159.397 99.0507H231.612V69.6298H151.134ZM230.298 98.191H159.397C154.525 98.191 152.448 96.185 152.448 91.4566V70.394H230.298V98.191ZM154.836 72.782V91.4566C154.836 94.8238 155.863 95.8029 159.397 95.8029H227.91V72.782H154.836ZM234 63.7551H227.91V38.0119H213.033V63.7551H207.063V13.7014H213.033V32.376H227.91V13.7014H234V63.7551ZM230.298 61.3671H231.612V16.0895H230.298V34.7641H210.645V16.0895H209.451V61.3671H210.645V35.6238H230.298V61.3671ZM201.188 61.6059L199.779 61.3671C188.34 59.385 174.752 48.5193 169.57 37.7014C164.388 48.5193 150.8 59.385 139.361 61.3671L137.952 61.6059V55.9223L138.955 55.7551C148.627 54.1074 166.513 40.8059 166.513 26.191V14.1313H172.603V26.191C172.603 40.7343 190.49 54.0596 200.161 55.7551L201.14 55.9223V61.6059H201.188ZM169.594 30.8716L170.716 34.1671C174.251 44.5074 187.6 56.0417 198.8 58.7163V57.9044C188.245 55.4208 170.239 41.4507 170.239 26.191V16.5193H168.925V26.191C168.925 42.0716 150.728 55.4925 140.364 57.9044V58.7163C151.564 56.0417 164.913 44.5074 168.448 34.1671L169.57 30.8716H169.594Z" fill="black"/>
</g>
<defs>
<clipPath id="clip0_275_1047">
<rect width="114" height="115.14" fill="white"/>
</clipPath>
<clipPath id="clip1_275_1047">
<rect width="96" height="87.7373" fill="white" transform="translate(138 13.7014)"/>
</clipPath>
</defs>
</svg>
