<svg width="78" height="38" viewBox="0 0 234 116" fill="none" xmlns="http://www.w3.org/2000/svg">
<g clip-path="url(#clip0_275_1059)">
<path d="M85.7849 115.14L85.7849 57.57C69.8882 57.57 56.9999 70.4583 56.9999 86.355C56.9999 102.252 69.8882 115.14 85.7849 115.14Z" fill="#CC196E"/>
<path d="M85.7851 57.5702L85.7851 0.00018692C69.8884 0.00018553 57.0001 12.8885 57.0001 28.7852C57.0001 44.6819 69.8884 57.5702 85.7851 57.5702Z" fill="#CC196E"/>
<path d="M114 115.14L114 57.57C98.1033 57.57 85.215 70.4583 85.215 86.355C85.215 102.252 98.1033 115.14 114 115.14Z" fill="#CC196E"/>
<path d="M114 57.5702L114 0.00018692C98.1033 0.00018553 85.215 12.8885 85.215 28.7852C85.215 44.6819 98.1033 57.5702 114 57.5702Z" fill="#CC196E"/>
<path d="M28.7849 115.14L28.7849 57.57C12.8882 57.57 -8.57392e-05 70.4583 -8.71289e-05 86.355C-8.85187e-05 102.252 12.8882 115.14 28.7849 115.14Z" fill="#CC196E"/>
<path d="M28.7849 57.5698L28.7849 -0.000179291C12.8882 -0.000180681 -8.57392e-05 12.8882 -8.71289e-05 28.7848C-8.85187e-05 44.6815 12.8882 57.5698 28.7849 57.5698Z" fill="#CC196E"/>
<path d="M57 115.14L57 57.57C41.1033 57.57 28.215 70.4583 28.215 86.355C28.215 102.252 41.1033 115.14 57 115.14Z" fill="#CC196E"/>
<path d="M57 57.5702L57 0.00018692C41.1033 0.00018553 28.215 12.8885 28.215 28.7852C28.215 44.6819 41.1033 57.5702 57 57.5702Z" fill="#CC196E"/>
</g>
<g clip-path="url(#clip1_275_1059)">
<path d="M205.933 60.1133C196.493 54.0646 188.864 45.2665 187.054 34.5667C185.358 46.0226 179.745 53.5376 172.528 58.2116C165.311 53.5376 159.697 46.0226 158.002 34.5667C156.192 45.2665 148.562 54.0646 139.123 60.1133V56.9286C148.654 50.0321 156.192 39.1262 156.192 25.2417V16.3519H159.789V25.2646C159.789 36.4913 164.761 49.2302 172.505 54.5228C180.249 49.2302 185.221 36.4913 185.221 25.2646V16.3519H188.818V25.2646C188.818 39.1491 196.356 50.078 205.887 56.9515V60.1362L205.933 60.1133ZM160.133 99.2235C153.878 99.2235 150.899 97.3219 150.899 90.6317V68.1553H232.831V99.2235H160.133ZM229.257 71.2484H154.519V90.6546C154.519 94.7787 156.215 96.0617 160.133 96.0617H229.234V71.2484H229.257ZM229.257 62.4503V37.3391H215.052V62.4503H211.546V15.9166H215.052V34.1543H229.257V15.9166H232.854V62.4503H229.257Z" fill="black"/>
<path d="M234 100.369H160.133C152.778 100.369 149.754 97.5511 149.754 90.6317V67.0098H233.977V100.369H234ZM152.068 69.3239V90.6546C152.068 96.2909 154.038 98.1009 160.156 98.1009H231.732V69.3239H152.068ZM230.403 97.2074H160.133C155.39 97.2074 153.374 95.237 153.374 90.6546V70.1029H230.403V97.2074ZM155.665 72.394V90.6546C155.665 93.9539 156.673 94.9162 160.133 94.9162H228.089V72.394H155.665ZM234 63.5959H228.112V38.4847H216.198V63.5959H210.401V14.7711H216.198V33.0088H228.112V14.7711H234V63.5959ZM230.403 61.3048H231.709V17.0623H230.403V35.3H213.906V17.0623H212.692V61.3048H213.906V36.1936H230.403V61.3048ZM207.079 62.2212L205.315 61.0986C196.287 55.3248 189.987 47.8327 187.191 39.6761C184.923 48.0847 180.226 54.6375 173.169 59.1969L172.551 59.6093L171.932 59.1969C164.875 54.6375 160.178 48.0847 157.91 39.6761C155.092 47.8556 148.814 55.3248 139.787 61.0986L138.023 62.2212V56.3558L138.504 56.0122C144.713 51.5444 155.092 41.5778 155.092 25.2418V15.2064H160.98V25.2647C160.98 36.4685 165.815 47.9931 172.551 53.1024C179.287 47.9931 184.121 36.4456 184.121 25.2647V15.2064H190.01V25.2647C190.01 41.6007 200.411 51.5444 206.598 56.0351L207.079 56.3787V62.2441V62.2212ZM140.291 57.5243V57.9826C149.525 51.5673 155.39 43.2504 156.879 34.3835L158.071 27.2351L159.125 34.4064C160.591 44.2356 165.082 51.7964 172.505 56.837C179.928 51.7964 184.442 44.2356 185.885 34.4064L186.939 27.2351L188.131 34.3835C189.62 43.2504 195.485 51.5673 204.719 57.9826V57.5243C193.859 49.4823 187.65 37.7515 187.65 25.2418V17.4976H186.344V25.2647C186.344 37.5224 180.776 50.2155 173.124 55.4623L172.482 55.8976L171.841 55.4623C164.188 50.2155 158.621 37.5224 158.621 25.2647V17.4976H157.315V25.2647C157.315 37.7745 151.105 49.5052 140.245 57.5472L140.291 57.5243Z" fill="black"/>
</g>
<defs>
<clipPath id="clip0_275_1059">
<rect width="114" height="115.14" fill="white" transform="translate(114 115.14) rotate(-180)"/>
</clipPath>
<clipPath id="clip1_275_1059">
<rect width="96" height="85.5981" fill="white" transform="translate(138 14.7711)"/>
</clipPath>
</defs>
</svg>
